<!DOCTYPE svg PUBLIC "-//W3C//DTD SVG 1.1//EN" "http://www.w3.org/Graphics/SVG/1.1/DTD/svg11.dtd">
<!-- Uploaded to: SVG Repo, www.svgrepo.com, Transformed by: SVG Repo Mixer Tools -->
<svg height="64px" width="64px" version="1.1" id="Layer_1" xmlns="http://www.w3.org/2000/svg" xmlns:xlink="http://www.w3.org/1999/xlink" viewBox="0 0 512 512" xml:space="preserve" fill="#000000">
<g id="SVGRepo_bgCarrier" stroke-width="0"/>
<g id="SVGRepo_tracerCarrier" stroke-linecap="round" stroke-linejoin="round"/>
<g id="SVGRepo_iconCarrier"> <g transform="translate(0 1)"> <polygon style="fill:#A76BFA;" points="34.133,498.2 477.867,498.2 477.867,11.8 34.133,11.8 "/> <polygon style="fill:#763096;" points="477.867,498.2 503.467,498.2 503.467,11.8 477.867,11.8 "/> <polygon style="fill:#FFFFFF;" points="8.533,498.2 34.133,498.2 34.133,11.8 8.533,11.8 "/> <path d="M512,506.733H0v-384c0-5.12,3.413-8.533,8.533-8.533s8.533,3.413,8.533,8.533v366.933h477.867v-76.8 c0-5.12,3.413-8.533,8.533-8.533c5.12,0,8.533,3.413,8.533,8.533V506.733z"/> <path d="M503.467,344.6c-5.12,0-8.533-3.413-8.533-8.533V20.333H17.067v34.133c0,5.12-3.413,8.533-8.533,8.533S0,59.587,0,54.467 v-51.2h512v332.8C512,341.187,508.587,344.6,503.467,344.6z"/> <path d="M17.067,88.6c0-5.12-3.413-8.533-8.533-8.533S0,83.48,0,88.6s3.413,8.533,8.533,8.533S17.067,93.72,17.067,88.6"/> <path d="M503.467,387.267c-5.12,0-8.533-3.413-8.533-8.533V370.2c0-5.12,3.413-8.533,8.533-8.533c5.12,0,8.533,3.413,8.533,8.533 v8.533C512,383.853,508.587,387.267,503.467,387.267z"/> <path style="fill:#FFE100;" d="M136.533,122.733c0,18.773-9.387,34.133-21.333,34.133s-21.333-15.36-21.333-34.133 S103.253,88.6,115.2,88.6S136.533,103.96,136.533,122.733"/> <path style="fill:#FF8800;" d="M128,88.6c-2.56,0-5.12,0-7.68,0.853c9.387,3.413,16.213,17.067,16.213,33.28 s-6.827,29.867-16.213,33.28c2.56,0.853,5.12,0.853,7.68,0.853c18.773,0,34.133-15.36,34.133-34.133S146.773,88.6,128,88.6"/> <path style="fill:#FFE100;" d="M136.533,259.267c0,18.773-9.387,34.133-21.333,34.133s-21.333-15.36-21.333-34.133 c0-18.773,9.387-34.133,21.333-34.133S136.533,240.493,136.533,259.267"/> <path style="fill:#FF8800;" d="M128,225.133c-2.56,0-5.12,0-7.68,0.853c9.387,3.413,16.213,17.067,16.213,33.28 c0,16.213-6.827,29.867-16.213,33.28c2.56,0.853,5.12,0.853,7.68,0.853c18.773,0,34.133-15.36,34.133-34.133 C162.133,240.493,146.773,225.133,128,225.133"/> <path style="fill:#FFE100;" d="M136.533,395.8c0,18.773-9.387,34.133-21.333,34.133s-21.333-15.36-21.333-34.133 s9.387-34.133,21.333-34.133S136.533,377.027,136.533,395.8"/> <path style="fill:#FF8800;" d="M128,361.667c-2.56,0-5.12,0-7.68,0.853c9.387,3.413,16.213,17.067,16.213,33.28 s-6.827,29.867-16.213,33.28c2.56,0.853,5.12,0.853,7.68,0.853c18.773,0,34.133-15.36,34.133-34.133S146.773,361.667,128,361.667"/> <path d="M128,165.4c-23.893,0-42.667-18.773-42.667-42.667S104.107,80.067,128,80.067s42.667,18.773,42.667,42.667 S151.893,165.4,128,165.4z M128,97.133c-14.507,0-25.6,11.093-25.6,25.6s11.093,25.6,25.6,25.6c14.507,0,25.6-11.093,25.6-25.6 S142.507,97.133,128,97.133z"/> <path d="M128,301.933c-23.893,0-42.667-18.773-42.667-42.667c0-23.893,18.773-42.667,42.667-42.667s42.667,18.773,42.667,42.667 C170.667,283.16,151.893,301.933,128,301.933z M128,233.667c-14.507,0-25.6,11.093-25.6,25.6c0,14.507,11.093,25.6,25.6,25.6 c14.507,0,25.6-11.093,25.6-25.6C153.6,244.76,142.507,233.667,128,233.667z"/> <path d="M128,438.467c-23.893,0-42.667-18.773-42.667-42.667c0-23.893,18.773-42.667,42.667-42.667s42.667,18.773,42.667,42.667 C170.667,419.693,151.893,438.467,128,438.467z M128,370.2c-14.507,0-25.6,11.093-25.6,25.6s11.093,25.6,25.6,25.6 c14.507,0,25.6-11.093,25.6-25.6S142.507,370.2,128,370.2z"/> <path d="M409.6,131.267H213.333c-5.12,0-8.533-3.413-8.533-8.533s3.413-8.533,8.533-8.533H409.6c5.12,0,8.533,3.413,8.533,8.533 S414.72,131.267,409.6,131.267z"/> <path d="M409.6,267.8H213.333c-5.12,0-8.533-3.413-8.533-8.533c0-5.12,3.413-8.533,8.533-8.533H409.6 c5.12,0,8.533,3.413,8.533,8.533C418.133,264.387,414.72,267.8,409.6,267.8z"/> <path d="M409.6,404.333H213.333c-5.12,0-8.533-3.413-8.533-8.533s3.413-8.533,8.533-8.533H409.6c5.12,0,8.533,3.413,8.533,8.533 S414.72,404.333,409.6,404.333z"/> </g> </g>
</svg>