<!DOCTYPE svg PUBLIC "-//W3C//DTD SVG 1.1//EN" "http://www.w3.org/Graphics/SVG/1.1/DTD/svg11.dtd">
<!-- Uploaded to: SVG Repo, www.svgrepo.com, Transformed by: SVG Repo Mixer Tools -->
<svg height="64px" width="64px" version="1.1" id="Layer_1" xmlns="http://www.w3.org/2000/svg" xmlns:xlink="http://www.w3.org/1999/xlink" viewBox="0 0 507.733 507.733" xml:space="preserve" fill="#000000">
<g id="SVGRepo_bgCarrier" stroke-width="0"/>
<g id="SVGRepo_tracerCarrier" stroke-linecap="round" stroke-linejoin="round"/>
<g id="SVGRepo_iconCarrier"> <g transform="translate(1)"> <path style="fill:#C49AE9;" d="M379.587,127.147c10.24,10.24,10.24,26.453,0,35.84L268.653,273.92l-0.853-0.853l-34.987-34.987 l0.853-0.853l110.08-110.08C353.133,116.907,369.347,116.907,379.587,127.147"/> <path style="fill:#ECF4F7;" d="M268.653,273.92L46.787,495.787c-10.24,10.24-26.453,10.24-35.84,0 c-10.24-10.24-10.24-26.453,0-35.84L232.813,238.08l34.987,34.987L268.653,273.92z"/> <circle style="fill:#FFD0A1;" cx="199.533" cy="68.267" r="8.533"/> <g> <circle style="fill:#7EE1E6;" cx="438.467" cy="179.2" r="8.533"/> <circle style="fill:#7EE1E6;" cx="395.8" cy="8.533" r="8.533"/> </g> <g> <circle style="fill:#C49AE9;" cx="498.2" cy="119.467" r="8.533"/> <circle style="fill:#C49AE9;" cx="165.4" cy="179.2" r="8.533"/> </g> </g> <path style="fill:#51565F;" d="M29.867,507.733c-7.68,0-15.36-2.56-21.333-8.533C2.56,493.227,0,486.4,0,477.867 c0-8.533,3.413-15.36,8.533-21.333L230.4,234.667c0.853-0.853,1.707-0.853,3.413-0.853l0,0c0.853,0,2.56,0.853,3.413,0.853 l13.653,13.653c1.707,1.707,1.707,4.267,0,5.973c-1.707,1.707-4.267,1.707-5.973,0L233.813,243.2L15.36,461.654 c-4.267,4.267-5.973,9.387-5.973,15.36c0,5.973,2.56,11.093,5.973,15.36c8.533,8.533,22.187,8.533,29.867,0l332.8-332.8 c4.267-4.267,5.973-9.387,5.973-15.36s-2.56-11.093-5.973-15.36c-8.533-8.533-22.187-8.533-29.867,0l-86.187,86.187 c-1.707,1.707-4.267,1.707-5.973,0s-1.707-4.267,0-5.973l86.187-86.187c11.947-11.947,30.72-11.947,41.813,0 c5.973,5.973,8.533,12.8,8.533,21.333c0,8.533-3.413,15.36-8.533,21.333l-332.8,332.8C45.227,505.173,37.547,507.733,29.867,507.733 z M320,345.6c-2.56,0-4.267-1.707-4.267-4.267v-4.267h-4.267c-2.56,0-4.267-1.707-4.267-4.267s1.707-4.267,4.267-4.267h4.267v-4.267 c0-2.56,1.707-4.267,4.267-4.267c2.56,0,4.267,1.707,4.267,4.267v4.267h4.267c2.56,0,4.267,1.707,4.267,4.267 s-1.707,4.267-4.267,4.267h-4.267v4.267C324.267,343.893,322.56,345.6,320,345.6z M482.133,320c-2.56,0-4.267-1.707-4.267-4.267 v-12.8h-12.8c-2.56,0-4.267-1.707-4.267-4.267s1.707-4.267,4.267-4.267h12.8v-12.8c0-2.56,1.707-4.267,4.267-4.267 s4.267,1.707,4.267,4.267v12.8h12.8c2.56,0,4.267,1.707,4.267,4.267s-1.707,4.267-4.267,4.267h-12.8v12.8 C486.4,318.293,484.693,320,482.133,320z M362.667,285.867c-2.56,0-4.267-1.707-4.267-4.267v-42.667c0-2.56,1.707-4.267,4.267-4.267 s4.267,1.707,4.267,4.267V281.6C366.933,284.16,365.227,285.867,362.667,285.867z M439.467,226.133c-0.853,0-2.56,0-3.413-0.853 l-28.16-28.16c-1.707-1.707-1.707-4.267,0-5.973c1.707-1.707,4.267-1.707,5.973,0l28.16,28.16c1.707,1.707,1.707,4.267,0,5.973 C442.027,226.133,440.32,226.133,439.467,226.133z M499.2,149.333h-68.267c-2.56,0-4.267-1.707-4.267-4.267 c0-2.56,1.707-4.267,4.267-4.267H499.2c2.56,0,4.267,1.707,4.267,4.267C503.467,147.627,501.76,149.333,499.2,149.333z M268.8,149.333h-42.667c-2.56,0-4.267-1.707-4.267-4.267c0-2.56,1.707-4.267,4.267-4.267H268.8c2.56,0,4.267,1.707,4.267,4.267 C273.067,147.627,271.36,149.333,268.8,149.333z M140.8,149.333c-2.56,0-4.267-1.707-4.267-4.267v-12.8h-12.8 c-2.56,0-4.267-1.707-4.267-4.267c0-2.56,1.707-4.267,4.267-4.267h12.8v-12.8c0-2.56,1.707-4.267,4.267-4.267 c2.56,0,4.267,1.707,4.267,4.267v12.8h12.8c2.56,0,4.267,1.707,4.267,4.267c0,2.56-1.707,4.267-4.267,4.267h-12.8v12.8 C145.067,147.627,143.36,149.333,140.8,149.333z M411.307,100.693c-0.853,0-2.56,0-3.413-0.853c-1.707-1.707-1.707-4.267,0-5.973 l28.16-28.16c1.707-1.707,4.267-1.707,5.973,0c1.707,1.707,1.707,4.267,0,5.973l-28.16,28.16 C413.013,100.693,412.16,100.693,411.307,100.693z M314.027,100.693c-0.853,0-2.56,0-3.413-0.853l-28.16-28.16 c-1.707-1.707-1.707-4.267,0-5.973c1.707-1.707,4.267-1.707,5.973,0l28.16,28.16c1.707,1.707,1.707,4.267,0,5.973 C316.587,100.693,315.733,100.693,314.027,100.693z M362.667,81.067c-2.56,0-4.267-1.707-4.267-4.267V8.533 c0-2.56,1.707-4.267,4.267-4.267s4.267,1.707,4.267,4.267V76.8C366.933,79.36,365.227,81.067,362.667,81.067z M490.667,72.533 c-2.56,0-4.267-1.707-4.267-4.267V64h-4.267c-2.56,0-4.267-1.707-4.267-4.267c0-2.56,1.707-4.267,4.267-4.267h4.267V51.2 c0-2.56,1.707-4.267,4.267-4.267s4.267,1.707,4.267,4.267v4.267h4.267c2.56,0,4.267,1.707,4.267,4.267 c0,2.56-1.707,4.267-4.267,4.267h-4.267v4.267C494.933,70.827,493.227,72.533,490.667,72.533z M226.133,38.4 c-2.56,0-4.267-1.707-4.267-4.267v-4.267H217.6c-2.56,0-4.267-1.707-4.267-4.267s1.707-4.267,4.267-4.267h4.267v-4.267 c0-2.56,1.707-4.267,4.267-4.267s4.267,1.707,4.267,4.267v4.267h4.267c2.56,0,4.267,1.707,4.267,4.267s-1.707,4.267-4.267,4.267 H230.4v4.267C230.4,36.693,228.693,38.4,226.133,38.4z"/> </g>
</svg>