<!DOCTYPE svg PUBLIC "-//W3C//DTD SVG 1.1//EN" "http://www.w3.org/Graphics/SVG/1.1/DTD/svg11.dtd">
<!-- Uploaded to: SVG Repo, www.svgrepo.com, Transformed by: SVG Repo Mixer Tools -->
<svg height="64px" width="64px" version="1.1" id="Layer_1" xmlns="http://www.w3.org/2000/svg" xmlns:xlink="http://www.w3.org/1999/xlink" viewBox="0 0 512.00 512.00" xml:space="preserve" fill="#000000" stroke="#000000" stroke-width="0.00512">
<g id="SVGRepo_bgCarrier" stroke-width="0"/>
<g id="SVGRepo_tracerCarrier" stroke-linecap="round" stroke-linejoin="round" stroke="#CCCCCC" stroke-width="10.24"/>
<g id="SVGRepo_iconCarrier"> <circle style="fill:#F15A24;" cx="456.161" cy="95.863" r="48.036"/> <path style="fill:#FBB03B;" d="M424.139,111.881c0-26.532,21.508-48.04,48.04-48.04c9.158,0,17.686,2.61,24.97,7.057 c-8.437-13.816-23.61-23.07-40.983-23.07c-26.532,0-48.04,21.508-48.04,48.04c0,17.374,9.254,32.546,23.07,40.983 C426.749,129.567,424.139,121.039,424.139,111.881z"/> <circle style="fill:#F15A24;" cx="400.123" cy="416.128" r="48.036"/> <path style="fill:#FBB03B;" d="M368.093,432.146c0-26.532,21.508-48.04,48.04-48.04c9.158,0,17.686,2.609,24.97,7.057 c-8.437-13.816-23.609-23.07-40.983-23.07c-26.532,0-48.04,21.508-48.04,48.04c0,17.374,9.254,32.546,23.07,40.983 C370.702,449.833,368.093,441.305,368.093,432.146z"/> <circle style="fill:#84DCCF;" cx="127.894" cy="247.993" r="120.099"/> <path style="fill:#027EA8;" d="M79.854,256c0-58.299,41.549-106.861,96.645-117.773c-14.871-6.596-31.289-10.333-48.605-10.333 c-66.329,0-120.099,53.77-120.099,120.099s53.77,120.099,120.099,120.099c8.031,0,15.866-0.822,23.455-2.326 C109.256,347.097,79.854,305.014,79.854,256z"/> <g> <path style="fill:#FFFFFF;" d="M171.659,180.681c-4.581-2.985-9.477-5.504-14.553-7.488l5.676-14.52 c6.066,2.372,11.916,5.381,17.388,8.946L171.659,180.681z"/> <path style="fill:#FFFFFF;" d="M47.616,247.686H32.027c0-53.003,43.005-95.714,95.867-95.714c5.849,0,11.71,0.609,17.421,1.658 l-2.815,15.371c-4.786-0.878-9.7-1.458-14.606-1.458C83.628,167.542,47.616,204.036,47.616,247.686z"/> <path style="fill:#FFFFFF;" d="M439.941,95.951h-15.589c0-17.668,14.562-31.898,32.23-31.898v15.589 C447.228,79.642,439.941,86.597,439.941,95.951z"/> <path style="fill:#FFFFFF;" d="M383.894,416.049h-15.589c0-17.668,14.488-31.731,32.155-31.731v15.589 C391.107,399.907,383.894,406.696,383.894,416.049z"/> </g> <path d="M456.166,40.033c-30.788,0-55.834,25.048-55.834,55.834c0,6.123,1.005,12.012,2.835,17.53l-170.134,61.867 c-23.112-33.308-61.618-55.165-105.139-55.165C57.374,120.099,0,177.473,0,247.993s57.374,127.894,127.894,127.894 c35.529,0,67.714-14.567,90.913-38.036l129.485,57.549c-2.575,6.414-4.007,13.407-4.007,20.732 c0,30.788,25.048,55.834,55.834,55.834c30.788,0,55.834-25.048,55.834-55.834c0-30.788-25.047-55.834-55.834-55.834 c-17.858,0-33.771,8.437-43.999,21.522l-126.606-56.27c16.471-21.53,26.274-48.419,26.274-77.557 c0-21.323-5.253-41.439-14.521-59.136l168.884-61.412c10.076,14.637,26.94,24.258,46.014,24.258 c30.788,0,55.834-25.048,55.834-55.834C512,65.081,486.953,40.033,456.166,40.033z M400.12,375.887 c22.191,0,40.245,18.053,40.245,40.245s-18.054,40.245-40.245,40.245c-22.192,0-40.245-18.054-40.245-40.245 C359.874,393.942,377.929,375.887,400.12,375.887z M127.894,360.298c-61.925,0-112.305-50.379-112.305-112.305 s50.38-112.305,112.305-112.305c61.926,0,112.305,50.38,112.305,112.305S189.82,360.298,127.894,360.298z M456.166,136.113 c-22.192,0-40.245-18.054-40.245-40.245c0-22.192,18.054-40.245,40.245-40.245s40.245,18.054,40.245,40.245 C496.411,118.059,478.357,136.113,456.166,136.113z"/> </g>
</svg>